# Blender v2.92.0 OBJ File: 'block.blend'
# www.blender.org
o Cube
v 0.444444 0.444444 -0.500000
v 0.444444 0.500000 -0.444444
v 0.500000 0.444444 -0.444444
v 0.444444 -0.500000 -0.444444
v 0.444444 -0.444444 -0.500000
v 0.500000 -0.444444 -0.444444
v 0.500000 0.444444 0.444444
v 0.444444 0.500000 0.444444
v 0.444444 0.444444 0.500000
v 0.500000 -0.444444 0.444444
v 0.444444 -0.444444 0.500000
v 0.444444 -0.500000 0.444444
v -0.444444 0.444444 -0.500000
v -0.500000 0.444444 -0.444444
v -0.444444 0.500000 -0.444444
v -0.500000 -0.444444 -0.444444
v -0.444444 -0.444444 -0.500000
v -0.444444 -0.500000 -0.444444
v -0.500000 0.444444 0.444444
v -0.444444 0.444444 0.500000
v -0.444444 0.500000 0.444444
v -0.444444 -0.500000 0.444444
v -0.444444 -0.444444 0.500000
v -0.500000 -0.444444 0.444444
vt 0.972222 0.527778
vt 0.527778 0.972222
vt 0.527778 0.527778
vt 0.472222 0.972222
vt 0.027778 0.527778
vt 0.472222 0.527778
vt 0.472222 0.972222
vt 0.027778 0.527778
vt 0.472222 0.527778
vt 0.972222 0.527778
vt 0.527778 0.972222
vt 0.527778 0.527778
vt 0.472222 0.972222
vt 0.027778 0.527778
vt 0.472222 0.527778
vt 0.527778 0.500000
vt 0.500000 0.527778
vt 0.500000 0.527778
vt 0.972222 0.500000
vt 1.000000 0.527778
vt 0.500000 0.972222
vt 0.500000 0.972222
vt 0.527778 1.000000
vt 0.500000 0.527778
vt 0.472222 0.500000
vt 0.472222 0.500000
vt 0.000000 0.972222
vt 0.000000 0.972222
vt 0.027778 1.000000
vt 0.000000 0.527778
vt 0.027778 0.500000
vt 0.000000 0.972222
vt 0.000000 0.972222
vt 0.027778 1.000000
vt 0.027778 0.500000
vt 0.027778 0.500000
vt 0.000000 0.527778
vt 0.472222 0.500000
vt 0.500000 0.972222
vt 0.027778 0.972222
vt 0.027778 0.972222
vt 0.972222 0.972222
vt 1.000000 0.972222
vt 0.972222 0.500000
vt 1.000000 0.972222
vt 0.972222 0.972222
vt 0.472222 0.972222
vt 0.027778 0.527778
vt 0.472222 0.527778
vt 0.027778 0.972222
vt 0.527778 0.500000
vt 0.500000 0.527778
vt 0.972222 1.000000
vt 1.000000 0.527778
vt 0.027778 0.972222
vn 0.0000 -1.0000 0.0000
vn -1.0000 0.0000 0.0000
vn 0.0000 0.0000 1.0000
vn 0.0000 1.0000 0.0000
vn 1.0000 0.0000 0.0000
vn 0.5774 0.5774 -0.5774
vn 0.5774 -0.5774 -0.5774
vn 0.5774 0.5774 0.5774
vn 0.5774 -0.5774 0.5774
vn -0.5774 0.5774 -0.5774
vn -0.5774 -0.5774 -0.5774
vn -0.5774 0.5774 0.5774
vn -0.5774 -0.5774 0.5774
vn -0.7071 -0.7071 0.0000
vn 0.0000 -0.7071 -0.7071
vn 0.7071 0.0000 -0.7071
vn -0.7071 0.0000 0.7071
vn 0.7071 0.0000 0.7071
vn -0.7071 0.0000 -0.7071
vn 0.0000 0.7071 0.7071
vn 0.7071 0.7071 0.0000
vn 0.0000 -0.7071 0.7071
vn -0.7071 0.7071 0.0000
vn 0.0000 0.7071 -0.7071
vn 0.7071 -0.7071 0.0000
vn 0.0000 0.0000 -1.0000
s off
f 4/1/1 22/2/1 18/3/1
f 19/4/2 16/5/2 24/6/2
f 9/7/3 23/8/3 11/9/3
f 15/10/4 8/11/4 2/12/4
f 3/13/5 10/14/5 6/15/5
f 1/16/6 2/17/6 3/18/6
f 4/1/7 5/19/7 6/20/7
f 7/21/8 8/22/8 9/23/8
f 10/24/9 11/25/9 12/26/9
f 13/27/10 14/28/10 15/29/10
f 16/5/11 17/30/11 18/31/11
f 19/32/12 20/33/12 21/34/12
f 22/35/13 23/36/13 24/37/13
f 22/38/14 16/5/14 18/31/14
f 18/3/15 5/19/15 4/1/15
f 6/15/16 1/39/16 3/13/16
f 20/40/17 24/37/17 23/8/17
f 11/9/18 7/21/18 9/7/18
f 17/30/19 14/41/19 13/27/19
f 21/42/20 9/23/20 8/11/20
f 8/11/21 3/18/21 2/12/21
f 12/26/22 23/8/22 22/35/22
f 15/10/23 19/43/23 21/42/23
f 2/12/24 13/44/24 15/10/24
f 4/1/25 10/45/25 12/46/25
f 13/47/26 5/48/26 17/49/26
f 4/1/1 12/46/1 22/2/1
f 19/4/2 14/41/2 16/5/2
f 9/7/3 20/40/3 23/8/3
f 15/10/4 21/42/4 8/11/4
f 3/13/5 7/50/5 10/14/5
f 22/38/14 24/6/14 16/5/14
f 18/3/15 17/51/15 5/19/15
f 6/15/16 5/52/16 1/39/16
f 20/40/17 19/32/17 24/37/17
f 11/9/18 10/24/18 7/21/18
f 17/30/19 16/5/19 14/41/19
f 21/42/20 20/53/20 9/23/20
f 8/11/21 7/21/21 3/18/21
f 12/26/22 11/9/22 23/8/22
f 15/10/23 14/54/23 19/43/23
f 2/12/24 1/16/24 13/44/24
f 4/1/25 6/20/25 10/45/25
f 13/47/26 1/55/26 5/48/26
